<svg width="693" height="132" viewBox="0 0 693 132" fill="none" xmlns="http://www.w3.org/2000/svg">
<path d="M109.312 7.45599H121.728V88.096H168.704V100H109.312V7.45599ZM185.993 47.008H197.897V100H185.993V47.008ZM185.097 27.808C185.097 25.9307 185.822 24.352 187.273 23.072C188.809 21.792 190.473 21.152 192.265 21.152C194.057 21.152 195.636 21.792 197.001 23.072C198.452 24.352 199.177 25.9307 199.177 27.808C199.177 29.7707 198.452 31.392 197.001 32.672C195.636 33.8667 194.057 34.464 192.265 34.464C190.473 34.464 188.809 33.824 187.273 32.544C185.822 31.264 185.097 29.6853 185.097 27.808ZM223.613 23.712H235.517V47.264H250.109V56.608H235.517V100H223.613V56.608H213.885V47.264H223.613V23.712ZM269.613 23.712H281.517V47.264H296.109V56.608H281.517V100H269.613V56.608H259.885V47.264H269.613V23.712ZM310.493 0.927994H322.397V100H310.493V0.927994ZM367.569 101.28C361.51 101.28 356.305 100.085 351.953 97.696C347.601 95.2213 344.23 91.8933 341.841 87.712C339.537 83.4453 338.385 78.5813 338.385 73.12C338.385 67.9147 339.708 63.1787 342.353 58.912C344.998 54.6453 348.54 51.232 352.977 48.672C357.414 46.112 362.364 44.832 367.825 44.832C374.822 44.832 380.625 46.88 385.233 50.976C389.841 55.072 392.956 60.704 394.577 67.872L350.929 83.232L348.113 76.192L383.953 63.136L381.393 64.8C380.369 61.984 378.662 59.552 376.273 57.504C373.884 55.3707 370.769 54.304 366.929 54.304C363.686 54.304 360.785 55.1147 358.225 56.736C355.665 58.272 353.66 60.4053 352.209 63.136C350.758 65.8667 350.033 68.9813 350.033 72.48C350.033 76.1493 350.801 79.392 352.337 82.208C353.873 84.9387 355.964 87.1147 358.609 88.736C361.34 90.272 364.412 91.04 367.825 91.04C370.129 91.04 372.348 90.6133 374.481 89.76C376.7 88.9067 378.748 87.7973 380.625 86.432L386.129 95.264C383.484 97.056 380.497 98.5067 377.169 99.616C373.926 100.725 370.726 101.28 367.569 101.28ZM403.221 100L443.669 3.616H444.437L484.757 100H470.549L440.341 23.072L449.173 17.312L415.381 100H403.221ZM426.901 64.928H461.333L465.429 75.68H423.317L426.901 64.928ZM530.475 101.28C526.464 101.28 522.582 100.341 518.827 98.464C515.158 96.5867 512.299 94.0693 510.251 90.912L511.019 87.2V125.472H499.243V46.24H509.483L511.147 59.808L509.867 56.096C512.427 52.8533 515.67 50.1653 519.595 48.032C523.52 45.8987 527.915 44.832 532.779 44.832C537.728 44.832 542.166 46.0267 546.091 48.416C550.102 50.8053 553.259 54.1333 555.563 58.4C557.867 62.6667 559.019 67.6587 559.019 73.376C559.019 79.0933 557.782 84.0427 555.307 88.224C552.832 92.4053 549.419 95.648 545.067 97.952C540.8 100.171 535.936 101.28 530.475 101.28ZM528.171 91.808C531.584 91.808 534.699 91.04 537.515 89.504C540.416 87.8827 542.72 85.7067 544.427 82.976C546.134 80.16 546.987 77.0027 546.987 73.504C546.987 69.92 546.176 66.7627 544.555 64.032C542.934 61.216 540.758 58.9973 538.027 57.376C535.382 55.7547 532.395 54.944 529.067 54.944C525.995 54.944 523.222 55.5413 520.747 56.736C518.272 57.9307 516.224 59.5947 514.603 61.728C512.982 63.776 511.83 66.1653 511.147 68.896V77.728C511.574 80.4587 512.598 82.8907 514.219 85.024C515.84 87.1573 517.846 88.8213 520.235 90.016C522.71 91.2107 525.355 91.808 528.171 91.808ZM606.35 101.28C602.339 101.28 598.457 100.341 594.702 98.464C591.033 96.5867 588.174 94.0693 586.126 90.912L586.894 87.2V125.472H575.118V46.24H585.358L587.022 59.808L585.742 56.096C588.302 52.8533 591.545 50.1653 595.47 48.032C599.395 45.8987 603.79 44.832 608.654 44.832C613.603 44.832 618.041 46.0267 621.966 48.416C625.977 50.8053 629.134 54.1333 631.438 58.4C633.742 62.6667 634.894 67.6587 634.894 73.376C634.894 79.0933 633.657 84.0427 631.182 88.224C628.707 92.4053 625.294 95.648 620.942 97.952C616.675 100.171 611.811 101.28 606.35 101.28ZM604.046 91.808C607.459 91.808 610.574 91.04 613.39 89.504C616.291 87.8827 618.595 85.7067 620.302 82.976C622.009 80.16 622.862 77.0027 622.862 73.504C622.862 69.92 622.051 66.7627 620.43 64.032C618.809 61.216 616.633 58.9973 613.902 57.376C611.257 55.7547 608.27 54.944 604.942 54.944C601.87 54.944 599.097 55.5413 596.622 56.736C594.147 57.9307 592.099 59.5947 590.478 61.728C588.857 63.776 587.705 66.1653 587.022 68.896V77.728C587.449 80.4587 588.473 82.8907 590.094 85.024C591.715 87.1573 593.721 88.8213 596.11 90.016C598.585 91.2107 601.23 91.808 604.046 91.808ZM665.841 101.024C662.086 101.024 658.417 100.384 654.833 99.104C651.334 97.7387 648.433 95.7333 646.129 93.088L651.121 86.176C653.34 88.3093 655.601 89.9307 657.905 91.04C660.294 92.064 662.641 92.576 664.945 92.576C666.652 92.576 668.23 92.3627 669.681 91.936C671.132 91.5093 672.284 90.8267 673.137 89.888C674.076 88.864 674.545 87.4987 674.545 85.792C674.545 83.9147 673.905 82.4213 672.625 81.312C671.43 80.2027 669.852 79.3067 667.889 78.624C666.012 77.9413 664.006 77.3013 661.873 76.704C657.521 75.2533 654.193 73.248 651.889 70.688C649.585 68.128 648.433 65.0133 648.433 61.344C648.433 58.528 649.116 55.9253 650.481 53.536C651.932 51.0613 654.022 49.056 656.753 47.52C659.569 45.984 663.025 45.216 667.121 45.216C670.79 45.216 674.076 45.6853 676.977 46.624C679.878 47.4773 682.609 48.928 685.169 50.976L680.433 58.4C678.897 56.7787 677.062 55.584 674.929 54.816C672.796 54.048 670.876 53.6213 669.169 53.536C667.718 53.4507 666.31 53.664 664.945 54.176C663.665 54.688 662.598 55.4133 661.745 56.352C660.892 57.2907 660.465 58.4 660.465 59.68C660.465 61.472 661.062 62.9227 662.257 64.032C663.452 65.1413 664.988 66.0373 666.865 66.72C668.828 67.3173 670.748 67.9573 672.625 68.64C675.27 69.408 677.617 70.432 679.665 71.712C681.713 72.992 683.334 74.5707 684.529 76.448C685.809 78.3253 686.449 80.672 686.449 83.488C686.449 86.6453 685.681 89.5893 684.145 92.32C682.694 94.9653 680.433 97.0987 677.361 98.72C674.374 100.256 670.534 101.024 665.841 101.024Z" fill="black"/>
<path fill-rule="evenodd" clip-rule="evenodd" d="M92.5516 92.0866L88.0845 96.5537C85.6168 99.0165 81.6212 99.0165 79.1535 96.5537L64.7986 82.1764C64.0269 81.4164 63.7573 80.2824 64.1042 79.2564C64.4441 78.2302 64.1753 77.0999 63.4098 76.3365L61.3043 74.2406C60.0707 75.4741 58.0707 75.4741 56.8372 74.2406C55.6036 73.007 55.6036 71.007 56.8372 69.7735L65.7698 60.8408C67.0047 59.6106 69.0019 59.6106 70.2369 60.8408C71.4431 62.0856 71.4431 64.0632 70.2369 65.3079L72.3344 67.4071C73.0979 68.1726 74.2281 68.4413 75.2544 68.1015C76.2803 67.7545 77.4143 68.0242 78.1743 68.7959L92.5516 83.1572C95.0133 85.6246 95.0133 89.6191 92.5516 92.0866Z" fill="#FBBF24"/>
<path fill-rule="evenodd" clip-rule="evenodd" d="M92.5516 92.0866L88.0845 96.5537C85.6168 99.0165 81.6212 99.0165 79.1535 96.5537L64.7986 82.1764C64.0269 81.4164 63.7573 80.2824 64.1042 79.2564C64.4441 78.2302 64.1753 77.0999 63.4098 76.3365L61.3043 74.2406C60.0707 75.4741 58.0707 75.4741 56.8372 74.2406C55.6036 73.007 55.6036 71.007 56.8372 69.7735L65.7698 60.8408C67.0047 59.6106 69.0019 59.6106 70.2369 60.8408C71.4431 62.0856 71.4431 64.0632 70.2369 65.3079L72.3344 67.4071C73.0979 68.1726 74.2281 68.4413 75.2544 68.1015C76.2803 67.7545 77.4143 68.0242 78.1743 68.7959L92.5516 83.1572C95.0133 85.6246 95.0133 89.6191 92.5516 92.0866Z" fill="#818CF8"/>
<path fill-rule="evenodd" clip-rule="evenodd" d="M92.5517 83.1556L78.1744 68.8007C77.4148 68.0283 76.2804 67.7586 75.2545 68.1063C74.2282 68.4462 73.0979 68.1774 72.3345 67.4119L70.2386 65.3064C71.4448 64.0616 71.4448 62.084 70.2386 60.8393C69.0036 59.609 67.0064 59.609 65.7715 60.8393L65.5875 61.0232C66.6424 62.2783 66.5782 64.1276 65.4387 65.3064L67.5362 67.4055C68.2996 68.171 69.4299 68.4398 70.4562 68.0999C71.4821 67.7522 72.6165 68.0219 73.3761 68.7943L87.7534 83.1556C90.2155 85.6242 90.2155 89.6196 87.7534 92.0882L83.2879 96.5537C82.6975 97.1426 81.9967 97.6091 81.2255 97.9265C83.5806 98.8931 86.2858 98.352 88.0878 96.5537L92.5533 92.0882C95.0149 89.6192 95.0142 85.6237 92.5517 83.1556Z" fill="#4F46E5"/>
<path fill-rule="evenodd" clip-rule="evenodd" d="M94.398 52.001C94.3993 53.4298 94.3219 54.8575 94.166 56.2777C94.0252 57.5662 93.0445 58.6037 91.766 58.8169L85.6062 59.8249C85.3854 60.9016 85.1166 61.9656 84.8062 63.0088C84.6422 63.5501 84.2065 63.9658 83.658 64.1041C83.1096 64.2423 82.5288 64.0829 82.1278 63.684L78.1807 59.7369C77.8001 59.3531 77.6409 58.8021 77.7583 58.2745C80.535 45.1093 74.327 31.6849 62.4976 25.2741C50.6682 18.8633 36.0318 20.9914 26.5177 30.5054C17.0037 40.0194 14.8757 54.6558 21.2864 66.4853C27.6972 78.3147 41.1216 84.5227 54.2868 81.746C54.8144 81.6286 55.3655 81.7878 55.7492 82.1684L59.6787 86.1155C60.0809 86.5158 60.2429 87.0982 60.1051 87.6487C59.9673 88.1992 59.5501 88.6366 59.0067 88.8002C57.9635 89.1202 56.9022 89.3869 55.8228 89.6002L54.8148 95.7601C54.6229 97.0212 53.6166 98.0013 52.3509 98.16C49.4584 98.48 46.5395 98.48 43.647 98.16C42.3813 98.0013 41.3751 97.0212 41.1831 95.7601L40.1751 89.6002C35.4613 88.6269 30.9761 86.7644 26.9594 84.1123L21.8715 87.7603C20.8404 88.5188 19.4324 88.5058 18.4156 87.7283C17.3116 86.8003 16.2396 85.8403 15.1996 84.8003C14.169 83.7794 13.1917 82.706 12.2717 81.5844C11.4942 80.5675 11.4812 79.1595 12.2397 78.1285L15.8876 73.0406C13.2356 69.0239 11.3731 64.5387 10.3997 59.8249L4.23987 58.8169C2.96138 58.6037 1.98071 57.5662 1.83992 56.2777C1.52528 53.4101 1.52528 50.5167 1.83992 47.6491C1.99863 46.3834 2.97877 45.3771 4.23987 45.1852L10.3997 44.1772C11.3731 39.4634 13.2356 34.9782 15.8876 30.9615L12.2397 25.8736C11.4812 24.8425 11.4942 23.4345 12.2717 22.4176C13.1836 21.289 14.1613 20.2152 15.1996 19.2017C16.2206 18.1711 17.294 17.1938 18.4156 16.2738C19.4324 15.4963 20.8404 15.4832 21.8715 16.2418L26.9594 19.8897C30.9761 17.2376 35.4613 15.3751 40.1751 14.4018L41.1831 8.24193C41.3776 6.97924 42.3808 5.99563 43.647 5.82598C46.5406 5.52733 49.4573 5.52733 52.3509 5.82598C53.6171 5.99563 54.6203 6.97924 54.8148 8.24193L55.8228 14.4018C60.5366 15.3751 65.0218 17.2376 69.0385 19.8897L74.1264 16.2418C75.1575 15.4832 76.5655 15.4963 77.5823 16.2738C78.7039 17.1938 79.7773 18.1711 80.7983 19.2017C81.8367 20.2152 82.8143 21.289 83.7262 22.4176C84.5037 23.4345 84.5167 24.8425 83.7582 25.8736L80.1103 30.9615C82.7623 34.9782 84.6248 39.4634 85.5982 44.1772L91.758 45.1852C93.0191 45.3771 93.9993 46.3834 94.158 47.6491C94.319 49.0941 94.3991 50.547 94.398 52.001Z" fill="#FBBF24"/>
<path fill-rule="evenodd" clip-rule="evenodd" d="M94.1581 47.6491C93.9994 46.3833 93.0193 45.3771 91.7581 45.1851L85.5983 44.1771C84.625 39.4633 82.7625 34.9781 80.1104 30.9614L83.7583 25.8735C84.5169 24.8424 84.5038 23.4344 83.7263 22.4176C82.8145 21.289 81.8368 20.2151 80.7984 19.2017C79.7775 18.171 78.7041 17.1938 77.5824 16.2737C76.5656 15.4962 75.1576 15.4832 74.1265 16.2417L73.3713 16.7825C74.2695 17.542 75.1452 18.3483 75.9985 19.2017C77.0369 20.2151 78.0146 21.289 78.9264 22.4176C79.7039 23.4344 79.717 24.8424 78.9584 25.8735L75.3105 30.9614C77.9626 34.9781 79.8251 39.4633 80.7984 44.1771L86.9582 45.1851C88.2194 45.3771 89.1995 46.3833 89.3582 47.6491C89.6728 50.5167 89.6728 53.4101 89.3582 56.2777C89.2174 57.5662 88.2367 58.6037 86.9582 58.8168L80.7984 59.8248C80.6576 60.5112 80.464 61.1816 80.2848 61.8552L82.1135 63.6807C82.5139 64.083 83.0963 64.2449 83.6468 64.1071C84.1973 63.9694 84.6347 63.5521 84.7983 63.0087C85.1183 61.9656 85.3839 60.9016 85.5983 59.8248L91.7581 58.8168C93.0366 58.6037 94.0173 57.5662 94.1581 56.2777C94.4727 53.4101 94.4727 50.5167 94.1581 47.6491Z" fill="#D97706"/>
<path fill-rule="evenodd" clip-rule="evenodd" d="M43.7479 40.0285L44.3751 43.1644C44.4981 43.7753 44.7987 44.3363 45.2391 44.7772L63.5347 63.0728L59.0708 67.5367L40.7752 49.2411C40.3343 48.8006 39.7733 48.5001 39.1624 48.3771L36.0265 47.7499C35.0714 47.5612 34.2586 46.9384 33.8281 46.0651L30.5594 39.5373C30.2655 38.9279 30.3865 38.1996 30.8618 37.7181L33.7177 34.8622C34.1993 34.3882 34.9267 34.2678 35.5353 34.5614L42.0632 37.8317C42.936 38.2618 43.5588 39.0739 43.7479 40.0285Z" fill="#94A3B8"/>
<path fill-rule="evenodd" clip-rule="evenodd" d="M4.23987 58.8168L10.3997 59.8248C11.3731 64.5386 13.2356 69.0238 15.8876 73.0405L12.2397 78.1284C11.4812 79.1595 11.4942 80.5675 12.2717 81.5843C13.1917 82.706 14.169 83.7794 15.1996 84.8003C16.2396 85.8403 17.3116 86.8002 18.4156 87.7282C19.4324 88.5057 20.8404 88.5188 21.8715 87.7602L22.6283 87.2178C21.7323 86.445 20.8523 85.6531 19.9995 84.8003C18.9689 83.7794 17.9916 82.706 17.0716 81.5843C16.2941 80.5675 16.2811 79.1595 17.0396 78.1284L20.6875 73.0405C18.0355 69.0238 16.173 64.5386 15.1996 59.8248L9.03977 58.8168C7.75815 58.6069 6.7735 57.5686 6.63182 56.2777C6.31984 53.4098 6.32252 50.5164 6.63982 47.6491C6.79853 46.3833 7.77867 45.3771 9.03977 45.1851L15.1996 44.1771C16.173 39.4633 18.0355 34.9781 20.6875 30.9614L17.0396 25.8735C16.2811 24.8424 16.2941 23.4344 17.0716 22.4176C17.9835 21.289 18.9612 20.2151 19.9995 19.2017C20.8529 18.3483 21.7286 17.542 22.6267 16.7825L21.8715 16.2417C20.8404 15.4832 19.4324 15.4962 18.4156 16.2737C17.294 17.1938 16.2206 18.171 15.1996 19.2017C14.1613 20.2151 13.1836 21.289 12.2717 22.4176C11.4942 23.4344 11.4812 24.8424 12.2397 25.8735L15.8876 30.9614C13.2356 34.9781 11.3731 39.4633 10.3997 44.1771L4.23987 45.1851C2.97877 45.3771 1.99863 46.3833 1.83992 47.6491C1.52528 50.5167 1.52528 53.4101 1.83992 56.2777C1.98071 57.5661 2.96138 58.6037 4.23987 58.8168Z" fill="white"/>
<path fill-rule="evenodd" clip-rule="evenodd" d="M43.6471 5.82599C42.3808 5.99563 41.3777 6.97924 41.1831 8.24193L40.1752 14.4018C36.4679 15.1737 32.8975 16.4977 29.5834 18.3297L31.7593 19.8897C35.776 17.2376 40.2612 15.3751 44.9751 14.4018L45.983 8.24193C46.1776 6.97924 47.1807 5.99563 48.447 5.82599C49.087 5.76039 49.743 5.71399 50.3989 5.67559C49.599 5.63079 48.799 5.60199 47.999 5.60199C46.5455 5.60356 45.093 5.67832 43.6471 5.82599Z" fill="white"/>
<path fill-rule="evenodd" clip-rule="evenodd" d="M40.1752 89.6002L41.1831 95.7601C41.3751 97.0212 42.3814 98.0013 43.6471 98.16C45.0921 98.321 46.545 98.4012 47.999 98.4C48.799 98.4 49.599 98.3712 50.3989 98.3232C49.743 98.2832 49.0918 98.232 48.447 98.1632C47.1813 98.0045 46.175 97.0244 45.983 95.7633L44.9751 89.6034C40.2612 88.6301 35.776 86.7676 31.7593 84.1155L29.5834 85.6755C32.8977 87.5064 36.4681 88.8294 40.1752 89.6002Z" fill="white"/>
<path d="M3.98072 60.396L9.07181 61.2296C10.0497 65.3891 11.6996 69.3612 13.9565 72.9894L10.9566 77.1717C9.76672 78.7925 9.79677 81.006 11.0302 82.594C11.9849 83.7584 12.9996 84.8724 14.0701 85.9315C15.0509 86.9139 16.1357 87.9011 17.4444 89.0002C19.0205 90.205 21.2013 90.2297 22.8043 89.061L27.0122 86.0435C30.6406 88.3001 34.6126 89.95 38.772 90.9282L39.6072 96.0225C39.9222 97.9858 41.4962 99.5051 43.4695 99.7504C46.4811 100.083 49.5201 100.083 52.5317 99.7504C54.5051 99.5023 56.0787 97.9828 56.3956 96.0193L57.2292 90.9282C57.9844 90.7506 58.7348 90.549 59.4691 90.325C60.5494 89.9991 61.3792 89.1298 61.6546 88.0355C61.93 86.9412 61.6105 85.7827 60.8131 84.9843L56.866 81.0356C56.099 80.2712 54.9958 79.9493 53.9381 80.1812C41.466 82.8104 28.7492 76.9285 22.6766 65.7218C16.6041 54.5152 18.6204 40.6498 27.6333 31.6369C36.6462 22.624 50.5116 20.6077 61.7182 26.6803C72.9249 32.7528 78.8068 45.4696 76.1776 57.9417C75.9466 58.9994 76.2684 60.1021 77.032 60.8696L80.9807 64.8167C81.7791 65.6141 82.9376 65.9336 84.0319 65.6582C85.1262 65.3829 85.9955 64.5531 86.3214 63.4728C86.5454 62.7368 86.747 61.9864 86.9246 61.2328L92.0157 60.3992C94.0028 60.068 95.5291 58.4588 95.7548 56.4569C96.0822 53.4707 96.0822 50.4577 95.7548 47.4715C95.5061 45.4987 93.9867 43.9259 92.0237 43.6092L86.9326 42.7756C85.9544 38.6162 84.3045 34.6442 82.0479 31.0159L85.0622 26.8143C86.2414 25.1953 86.2055 22.991 84.9742 21.4113C84.0273 20.24 83.0122 19.1256 81.9343 18.0737C80.8632 16.9917 79.7364 15.9663 78.5583 15.0018C76.9837 13.7928 74.8001 13.768 73.1985 14.941L68.9905 17.9585C65.3622 15.7019 61.3902 14.052 57.2308 13.0738L56.3956 7.97954C56.086 6.00237 54.4995 4.47216 52.5125 4.23402C49.4993 3.92199 46.4619 3.92199 43.4487 4.23402C41.4776 4.48732 39.9119 6.01394 39.6088 7.97794L38.7704 13.0738C34.611 14.052 30.639 15.7019 27.0106 17.9585L22.8091 14.9442C21.1911 13.7617 18.9847 13.7977 17.406 15.0322C16.2457 15.9808 15.1354 16.9891 14.0797 18.0529C12.993 19.1159 11.9699 20.2421 11.0158 21.4257C9.79662 23.002 9.76532 25.1942 10.939 26.8047L13.9565 31.0127C11.6999 34.641 10.05 38.613 9.07181 42.7724L3.97752 43.6076C2.01417 43.9226 0.494922 45.4966 0.249594 47.4699C-0.0805016 50.4553 -0.0831842 53.4678 0.241594 56.4537C0.467256 58.4556 1.99356 60.0649 3.98072 60.396ZM3.43033 47.8283C3.51132 47.2759 3.94637 46.8428 4.4991 46.7643L10.659 45.7563C11.3123 45.6489 11.8319 45.1503 11.9661 44.502C12.895 39.985 14.6796 35.6876 17.2236 31.8414C17.5884 31.2882 17.5745 30.5673 17.1884 30.0287L13.5357 24.936C13.2003 24.4911 13.1912 23.8803 13.5133 23.4256C14.3908 22.3401 15.3316 21.3074 16.3309 20.3329C17.3016 19.3521 18.3215 18.4213 19.3868 17.5441C19.8469 17.2001 20.4786 17.2001 20.9388 17.5441L26.0283 21.1937C26.5669 21.5797 27.2878 21.5937 27.841 21.2289C31.6867 18.685 35.9836 16.9004 40.4999 15.9714C41.1482 15.8371 41.6469 15.3175 41.7543 14.6642L42.7623 8.50753C42.838 7.95652 43.2609 7.51747 43.8087 7.42115C46.5828 7.13876 49.3784 7.13876 52.1525 7.42115C52.7151 7.503 53.1563 7.94615 53.2357 8.50913L54.2437 14.669C54.3513 15.3227 54.8507 15.8425 55.4996 15.9762C60.0154 16.9028 64.3122 18.6847 68.1586 21.2257C68.7118 21.5905 69.4327 21.5765 69.9713 21.1905L75.064 17.5377C75.5089 17.2023 76.1197 17.1933 76.5744 17.5153C77.6571 18.4063 78.6931 19.3526 79.6783 20.3505C80.666 21.3141 81.5962 22.335 82.4639 23.408C82.7956 23.8665 82.791 24.4872 82.4527 24.9408L78.8031 30.0303C78.4171 30.5689 78.4031 31.2898 78.7679 31.843C81.3118 35.6887 83.0964 39.9856 84.0254 44.502C84.1597 45.1503 84.6793 45.6489 85.3326 45.7563L91.4893 46.7643C92.0432 46.8415 92.4799 47.2749 92.5613 47.8283C92.7183 49.2137 92.7973 50.6068 92.798 52.001C92.7987 53.3715 92.7245 54.741 92.5756 56.1033C92.5105 56.6796 92.071 57.1427 91.4989 57.2377L85.339 58.2457C84.6848 58.3535 84.1649 58.8537 84.0318 59.5032C83.8216 60.5325 83.5589 61.5504 83.2446 62.5528L79.3087 58.6073C82.0748 45.4948 76.3771 32.0476 65.0326 24.9138C53.6881 17.7801 39.1 18.4709 28.4805 26.6449C17.861 34.8189 13.4596 48.7443 17.4525 61.5367C21.4454 74.3291 32.9865 83.2784 46.3702 83.9603C49.1312 84.1002 51.8987 83.8781 54.602 83.2995L58.5428 87.2627C57.5476 87.5635 56.5252 87.8227 55.5028 88.0338C54.8533 88.1669 54.3531 88.6868 54.2453 89.341L53.2373 95.4977C53.1601 96.0517 52.7267 96.4883 52.1733 96.5697C49.4004 96.8753 46.6024 96.8753 43.8295 96.5697C43.2765 96.4893 42.8426 96.0541 42.7639 95.5009L41.7559 89.341C41.6485 88.6877 41.1498 88.1681 40.5015 88.0338C35.9841 87.1052 31.6861 85.3206 27.8394 82.7764C27.2862 82.4115 26.5653 82.4255 26.0267 82.8116L20.934 86.4643C20.4968 86.7946 19.898 86.81 19.4444 86.5027C18.2652 85.5123 17.2476 84.5827 16.3309 83.6691C15.3501 82.6984 14.4193 81.6785 13.5421 80.6132C13.1986 80.1529 13.1986 79.5215 13.5421 79.0612L17.1916 73.9717C17.5776 73.4331 17.5916 72.7122 17.2268 72.159C14.6832 68.3137 12.8987 64.0174 11.9693 59.5017C11.8357 58.8527 11.3159 58.3533 10.6622 58.2457L4.5023 57.2377C3.92969 57.1425 3.48996 56.6786 3.42553 56.1017C3.12635 53.3519 3.12903 50.5776 3.43353 47.8283H3.43033Z" fill="#0F172A"/>
<path d="M93.6828 93.2193C96.763 90.1214 96.763 85.1175 93.6828 82.0196L79.3071 67.6599C78.1249 66.4598 76.3621 66.0382 74.7648 66.5735C74.3096 66.7262 73.8073 66.6085 73.4673 66.2695L72.3009 65.1031C72.5967 64.4629 72.7475 63.7652 72.7425 63.06C72.7515 61.8017 72.2573 60.592 71.3697 59.7C69.4856 57.9052 66.5244 57.9052 64.6402 59.7L63.5363 60.804L46.3702 43.646C46.1521 43.4275 46.0039 43.149 45.9446 42.846L45.3174 39.7101C45.0361 38.2692 44.0973 37.0427 42.7799 36.3949L36.2296 33.1214C35.0076 32.5325 33.5471 32.778 32.5849 33.7342L29.729 36.5901C28.7665 37.5589 28.5249 39.0317 29.1274 40.2572L32.3929 46.7755C33.04 48.0973 34.2686 49.0399 35.7128 49.3226L38.8472 49.9498C39.1502 50.0091 39.4287 50.1572 39.6472 50.3754L56.81 67.5367L55.706 68.6406C53.8683 70.5112 53.8719 73.5103 55.714 75.3765C57.1424 76.7771 59.2896 77.1449 61.1027 76.2997L62.2835 77.4805C62.61 77.8137 62.7246 78.3006 62.5811 78.7444C62.0373 80.346 62.4561 82.1174 63.6595 83.3059L78.0256 97.688C81.1222 100.764 86.1207 100.764 89.2173 97.688L93.6828 93.2193ZM39.476 46.8091L36.34 46.1819C35.8684 46.0898 35.4677 45.781 35.2585 45.3483L31.9993 38.8493L34.8265 35.9901L41.3639 39.2653C41.7922 39.4752 42.0972 39.8738 42.1879 40.342L42.8151 43.4796C42.9991 44.3999 43.4517 45.2451 44.1159 45.9083L61.2787 63.0728L59.0708 65.2807L41.9063 48.1099C41.2428 47.4454 40.3969 46.9927 39.476 46.8091ZM80.2847 95.4225L65.9186 81.0452C65.5751 80.7077 65.4568 80.2025 65.6146 79.7476C66.1467 78.1502 65.7256 76.3891 64.5282 75.2053L63.5571 74.2341L64.661 73.1318C65.0655 72.7276 65.2235 72.1384 65.0758 71.5861C64.928 71.0338 64.4968 70.6023 63.9446 70.4542C63.3924 70.306 62.8031 70.4637 62.3987 70.8678L60.1587 73.1078C59.7184 73.5564 59.049 73.6915 58.4691 73.4486C57.8893 73.2057 57.5159 72.634 57.5268 72.0054C57.52 71.594 57.6771 71.1968 57.9636 70.9014L66.8962 61.9688C67.5136 61.3826 68.4819 61.3826 69.0993 61.9688C69.3836 62.2631 69.5411 62.6572 69.5377 63.0664C69.5449 63.4741 69.3894 63.8678 69.1057 64.1607L69.0945 64.1687L66.8546 66.4087C66.4502 66.8131 66.2922 67.4026 66.4403 67.955C66.5883 68.5074 67.0198 68.9389 67.5722 69.087C68.1247 69.235 68.7141 69.0771 69.1185 68.6726L70.2209 67.5687L71.1809 68.5287C72.3713 69.7377 74.1473 70.1614 75.7552 69.6198C76.2061 69.4694 76.7033 69.59 77.0352 69.9302L91.4093 84.2883C93.2436 86.1346 93.2436 89.1154 91.4093 90.9618L86.9438 95.4273C85.0978 97.2508 82.128 97.2486 80.2847 95.4225Z" fill="#0F172A"/>
<path fill-rule="evenodd" clip-rule="evenodd" d="M72.4784 78.6805C71.8507 78.0741 70.8527 78.0828 70.2356 78.7C69.6184 79.3171 69.6098 80.315 70.2161 80.9428L81.3759 92.101C82.0037 92.7073 83.0016 92.6987 83.6187 92.0815C84.2359 91.4644 84.2446 90.4664 83.6382 89.8386L72.4784 78.6805Z" fill="#0F172A"/>
<path fill-rule="evenodd" clip-rule="evenodd" d="M76.9408 74.2165C76.3156 73.5918 75.3023 73.5922 74.6776 74.2173C74.0529 74.8425 74.0532 75.8558 74.6784 76.4805L85.8366 87.6403C86.4644 88.2466 87.4623 88.2379 88.0794 87.6208C88.6966 87.0036 88.7053 86.0057 88.0989 85.3779L76.9408 74.2165Z" fill="#0F172A"/>
</svg>
