<svg width="96" height="96" viewBox="0 0 96 96" fill="none" xmlns="http://www.w3.org/2000/svg">
<path fill-rule="evenodd" clip-rule="evenodd" d="M92.5516 88.0866L88.0845 92.5537C85.6168 95.0165 81.6212 95.0165 79.1535 92.5537L64.7986 78.1764C64.0269 77.4164 63.7573 76.2824 64.1042 75.2564C64.4441 74.2302 64.1753 73.0999 63.4098 72.3365L61.3043 70.2406C60.0707 71.4741 58.0707 71.4741 56.8372 70.2406C55.6036 69.007 55.6036 67.007 56.8372 65.7735L65.7698 56.8408C67.0047 55.6106 69.0019 55.6106 70.2369 56.8408C71.4431 58.0856 71.4431 60.0632 70.2369 61.3079L72.3344 63.4071C73.0979 64.1726 74.2281 64.4413 75.2544 64.1015C76.2803 63.7545 77.4143 64.0242 78.1743 64.7959L92.5516 79.1572C95.0133 81.6246 95.0133 85.6191 92.5516 88.0866Z" fill="#FBBF24"/>
<path fill-rule="evenodd" clip-rule="evenodd" d="M92.5516 88.0866L88.0845 92.5537C85.6168 95.0165 81.6212 95.0165 79.1535 92.5537L64.7986 78.1764C64.0269 77.4164 63.7573 76.2824 64.1042 75.2564C64.4441 74.2302 64.1753 73.0999 63.4098 72.3365L61.3043 70.2406C60.0707 71.4741 58.0707 71.4741 56.8372 70.2406C55.6036 69.007 55.6036 67.007 56.8372 65.7735L65.7698 56.8408C67.0047 55.6106 69.0019 55.6106 70.2369 56.8408C71.4431 58.0856 71.4431 60.0632 70.2369 61.3079L72.3344 63.4071C73.0979 64.1726 74.2281 64.4413 75.2544 64.1015C76.2803 63.7545 77.4143 64.0242 78.1743 64.7959L92.5516 79.1572C95.0133 81.6246 95.0133 85.6191 92.5516 88.0866Z" fill="#818CF8"/>
<path fill-rule="evenodd" clip-rule="evenodd" d="M92.5517 79.1556L78.1744 64.8007C77.4148 64.0283 76.2804 63.7586 75.2545 64.1063C74.2282 64.4462 73.0979 64.1774 72.3345 63.4119L70.2386 61.3064C71.4448 60.0616 71.4448 58.084 70.2386 56.8393C69.0036 55.609 67.0064 55.609 65.7715 56.8393L65.5875 57.0232C66.6424 58.2783 66.5782 60.1276 65.4387 61.3064L67.5362 63.4055C68.2996 64.171 69.4299 64.4398 70.4562 64.0999C71.4821 63.7522 72.6165 64.0219 73.3761 64.7943L87.7534 79.1556C90.2155 81.6242 90.2155 85.6196 87.7534 88.0882L83.2879 92.5537C82.6975 93.1426 81.9967 93.6091 81.2255 93.9265C83.5806 94.8931 86.2858 94.352 88.0878 92.5537L92.5533 88.0882C95.0149 85.6192 95.0142 81.6237 92.5517 79.1556Z" fill="#4F46E5"/>
<path fill-rule="evenodd" clip-rule="evenodd" d="M94.398 48.001C94.3993 49.4298 94.3219 50.8575 94.166 52.2778C94.0252 53.5662 93.0445 54.6038 91.766 54.8169L85.6062 55.8249C85.3854 56.9017 85.1166 57.9656 84.8062 59.0088C84.6422 59.5501 84.2065 59.9658 83.658 60.1041C83.1096 60.2424 82.5288 60.0829 82.1278 59.684L78.1807 55.7369C77.8001 55.3531 77.6409 54.8021 77.7583 54.2745C80.535 41.1093 74.327 27.6849 62.4976 21.2741C50.6682 14.8633 36.0318 16.9914 26.5177 26.5054C17.0037 36.0194 14.8757 50.6559 21.2864 62.4853C27.6972 74.3147 41.1216 80.5227 54.2868 77.746C54.8144 77.6286 55.3655 77.7878 55.7492 78.1684L59.6787 82.1155C60.0809 82.5158 60.2429 83.0982 60.1051 83.6487C59.9673 84.1992 59.5501 84.6367 59.0067 84.8003C57.9635 85.1203 56.9022 85.3869 55.8228 85.6003L54.8148 91.7601C54.6229 93.0212 53.6166 94.0014 52.3509 94.1601C49.4584 94.4801 46.5395 94.4801 43.647 94.1601C42.3813 94.0014 41.3751 93.0212 41.1831 91.7601L40.1751 85.6003C35.4613 84.6269 30.9761 82.7644 26.9594 80.1124L21.8715 83.7603C20.8404 84.5188 19.4324 84.5058 18.4156 83.7283C17.3116 82.8003 16.2396 81.8403 15.1996 80.8004C14.169 79.7794 13.1917 78.706 12.2717 77.5844C11.4942 76.5676 11.4812 75.1596 12.2397 74.1285L15.8876 69.0406C13.2356 65.0239 11.3731 60.5387 10.3997 55.8249L4.23987 54.8169C2.96138 54.6038 1.98071 53.5662 1.83992 52.2778C1.52528 49.4102 1.52528 46.5167 1.83992 43.6491C1.99863 42.3834 2.97877 41.3771 4.23987 41.1852L10.3997 40.1772C11.3731 35.4634 13.2356 30.9782 15.8876 26.9615L12.2397 21.8736C11.4812 20.8425 11.4942 19.4345 12.2717 18.4177C13.1836 17.289 14.1613 16.2152 15.1996 15.2017C16.2206 14.1711 17.294 13.1938 18.4156 12.2738C19.4324 11.4963 20.8404 11.4833 21.8715 12.2418L26.9594 15.8897C30.9761 13.2377 35.4613 11.3752 40.1751 10.4018L41.1831 4.24196C41.3776 2.97927 42.3808 1.99566 43.647 1.82601C46.5406 1.52736 49.4573 1.52736 52.3509 1.82601C53.6171 1.99566 54.6203 2.97927 54.8148 4.24196L55.8228 10.4018C60.5366 11.3752 65.0218 13.2377 69.0385 15.8897L74.1264 12.2418C75.1575 11.4833 76.5655 11.4963 77.5823 12.2738C78.7039 13.1938 79.7773 14.1711 80.7983 15.2017C81.8367 16.2152 82.8143 17.289 83.7262 18.4177C84.5037 19.4345 84.5167 20.8425 83.7582 21.8736L80.1103 26.9615C82.7623 30.9782 84.6248 35.4634 85.5982 40.1772L91.758 41.1852C93.0191 41.3771 93.9993 42.3834 94.158 43.6491C94.319 45.0942 94.3991 46.5471 94.398 48.001Z" fill="#FBBF24"/>
<path fill-rule="evenodd" clip-rule="evenodd" d="M94.1581 43.6491C93.9994 42.3833 93.0193 41.3771 91.7581 41.1851L85.5983 40.1771C84.625 35.4633 82.7625 30.9781 80.1104 26.9614L83.7583 21.8735C84.5169 20.8424 84.5038 19.4344 83.7263 18.4176C82.8145 17.289 81.8368 16.2151 80.7984 15.2017C79.7775 14.171 78.7041 13.1938 77.5824 12.2737C76.5656 11.4962 75.1576 11.4832 74.1265 12.2417L73.3713 12.7825C74.2695 13.542 75.1452 14.3483 75.9985 15.2017C77.0369 16.2151 78.0146 17.289 78.9264 18.4176C79.7039 19.4344 79.717 20.8424 78.9584 21.8735L75.3105 26.9614C77.9626 30.9781 79.8251 35.4633 80.7984 40.1771L86.9582 41.1851C88.2194 41.3771 89.1995 42.3833 89.3582 43.6491C89.6728 46.5167 89.6728 49.4101 89.3582 52.2777C89.2174 53.5662 88.2367 54.6037 86.9582 54.8168L80.7984 55.8248C80.6576 56.5112 80.464 57.1816 80.2848 57.8552L82.1135 59.6807C82.5139 60.083 83.0963 60.2449 83.6468 60.1071C84.1973 59.9694 84.6347 59.5521 84.7983 59.0087C85.1183 57.9656 85.3839 56.9016 85.5983 55.8248L91.7581 54.8168C93.0366 54.6037 94.0173 53.5662 94.1581 52.2777C94.4727 49.4101 94.4727 46.5167 94.1581 43.6491Z" fill="#D97706"/>
<path fill-rule="evenodd" clip-rule="evenodd" d="M43.7479 36.0284L44.3751 39.1644C44.4981 39.7753 44.7987 40.3363 45.2391 40.7771L63.5347 59.0727L59.0708 63.5366L40.7752 45.241C40.3343 44.8006 39.7733 44.5001 39.1624 44.377L36.0265 43.7499C35.0714 43.5612 34.2586 42.9384 33.8281 42.0651L30.5594 35.5372C30.2655 34.9279 30.3865 34.1995 30.8618 33.7181L33.7177 30.8621C34.1993 30.3881 34.9267 30.2677 35.5353 30.5613L42.0632 33.8317C42.936 34.2618 43.5588 35.0739 43.7479 36.0284Z" fill="#94A3B8"/>
<path fill-rule="evenodd" clip-rule="evenodd" d="M4.23987 54.8168L10.3997 55.8248C11.3731 60.5386 13.2356 65.0238 15.8876 69.0405L12.2397 74.1284C11.4812 75.1595 11.4942 76.5675 12.2717 77.5843C13.1917 78.706 14.169 79.7794 15.1996 80.8003C16.2396 81.8403 17.3116 82.8002 18.4156 83.7282C19.4324 84.5057 20.8404 84.5188 21.8715 83.7602L22.6283 83.2178C21.7323 82.445 20.8523 81.6531 19.9995 80.8003C18.9689 79.7794 17.9916 78.706 17.0716 77.5843C16.2941 76.5675 16.2811 75.1595 17.0396 74.1284L20.6875 69.0405C18.0355 65.0238 16.173 60.5386 15.1996 55.8248L9.03977 54.8168C7.75815 54.6069 6.7735 53.5686 6.63182 52.2777C6.31984 49.4098 6.32252 46.5164 6.63982 43.6491C6.79853 42.3833 7.77867 41.3771 9.03977 41.1851L15.1996 40.1771C16.173 35.4633 18.0355 30.9781 20.6875 26.9614L17.0396 21.8735C16.2811 20.8424 16.2941 19.4344 17.0716 18.4176C17.9835 17.289 18.9612 16.2151 19.9995 15.2017C20.8529 14.3483 21.7286 13.542 22.6267 12.7825L21.8715 12.2417C20.8404 11.4832 19.4324 11.4962 18.4156 12.2737C17.294 13.1938 16.2206 14.171 15.1996 15.2017C14.1613 16.2151 13.1836 17.289 12.2717 18.4176C11.4942 19.4344 11.4812 20.8424 12.2397 21.8735L15.8876 26.9614C13.2356 30.9781 11.3731 35.4633 10.3997 40.1771L4.23987 41.1851C2.97877 41.3771 1.99863 42.3833 1.83992 43.6491C1.52528 46.5167 1.52528 49.4101 1.83992 52.2777C1.98071 53.5661 2.96138 54.6037 4.23987 54.8168Z" fill="white"/>
<path fill-rule="evenodd" clip-rule="evenodd" d="M43.6471 1.82602C42.3808 1.99566 41.3777 2.97927 41.1831 4.24196L40.1752 10.4018C36.4679 11.1737 32.8975 12.4977 29.5834 14.3298L31.7593 15.8897C35.776 13.2377 40.2612 11.3752 44.9751 10.4018L45.983 4.24196C46.1776 2.97927 47.1807 1.99566 48.447 1.82602C49.087 1.76042 49.743 1.71402 50.3989 1.67562C49.599 1.63082 48.799 1.60202 47.999 1.60202C46.5455 1.60359 45.093 1.67835 43.6471 1.82602Z" fill="white"/>
<path fill-rule="evenodd" clip-rule="evenodd" d="M40.1752 85.6002L41.1831 91.7601C41.3751 93.0212 42.3814 94.0013 43.6471 94.16C45.0921 94.321 46.545 94.4012 47.999 94.4C48.799 94.4 49.599 94.3712 50.3989 94.3232C49.743 94.2832 49.0918 94.232 48.447 94.1632C47.1813 94.0045 46.175 93.0244 45.983 91.7633L44.9751 85.6034C40.2612 84.6301 35.776 82.7676 31.7593 80.1155L29.5834 81.6755C32.8977 83.5064 36.4681 84.8294 40.1752 85.6002Z" fill="white"/>
<path d="M3.98072 56.396L9.07181 57.2296C10.0497 61.3891 11.6996 65.3612 13.9565 68.9894L10.9566 73.1717C9.76672 74.7925 9.79677 77.006 11.0302 78.594C11.9849 79.7584 12.9996 80.8724 14.0701 81.9315C15.0509 82.9139 16.1357 83.9011 17.4444 85.0002C19.0205 86.205 21.2013 86.2297 22.8043 85.061L27.0122 82.0435C30.6406 84.3001 34.6126 85.95 38.772 86.9282L39.6072 92.0225C39.9222 93.9858 41.4962 95.5051 43.4695 95.7504C46.4811 96.0832 49.5201 96.0832 52.5317 95.7504C54.5051 95.5023 56.0787 93.9828 56.3956 92.0193L57.2292 86.9282C57.9844 86.7506 58.7348 86.549 59.4691 86.325C60.5494 85.9991 61.3792 85.1298 61.6546 84.0355C61.93 82.9412 61.6105 81.7827 60.8131 80.9843L56.866 77.0356C56.099 76.2712 54.9958 75.9493 53.9381 76.1812C41.466 78.8104 28.7492 72.9285 22.6766 61.7218C16.6041 50.5152 18.6204 36.6498 27.6333 27.6369C36.6462 18.624 50.5116 16.6077 61.7182 22.6803C72.9249 28.7528 78.8068 41.4696 76.1776 53.9417C75.9466 54.9994 76.2684 56.1021 77.032 56.8696L80.9807 60.8167C81.7791 61.6141 82.9376 61.9336 84.0319 61.6582C85.1262 61.3829 85.9955 60.5531 86.3214 59.4728C86.5454 58.7368 86.747 57.9864 86.9246 57.2328L92.0157 56.3992C94.0028 56.068 95.5291 54.4588 95.7548 52.4569C96.0822 49.4707 96.0822 46.4577 95.7548 43.4715C95.5061 41.4987 93.9867 39.9259 92.0237 39.6092L86.9326 38.7756C85.9544 34.6162 84.3045 30.6442 82.0479 27.0159L85.0622 22.8143C86.2414 21.1953 86.2055 18.991 84.9742 17.4113C84.0273 16.24 83.0122 15.1256 81.9343 14.0737C80.8632 12.9917 79.7364 11.9663 78.5583 11.0018C76.9837 9.79277 74.8001 9.768 73.1985 10.941L68.9905 13.9585C65.3622 11.7019 61.3902 10.052 57.2308 9.07383L56.3956 3.97954C56.086 2.00237 54.4995 0.472164 52.5125 0.234015C49.4993 -0.0780051 46.4619 -0.0780051 43.4487 0.234015C41.4776 0.487323 39.9119 2.01394 39.6088 3.97794L38.7704 9.07383C34.611 10.052 30.639 11.7019 27.0106 13.9585L22.8091 10.9442C21.1911 9.76172 18.9847 9.79766 17.406 11.0322C16.2457 11.9808 15.1354 12.9891 14.0797 14.0529C12.993 15.1159 11.9699 16.2421 11.0158 17.4257C9.79662 19.002 9.76532 21.1942 10.939 22.8047L13.9565 27.0127C11.6999 30.641 10.05 34.613 9.07181 38.7724L3.97752 39.6076C2.01417 39.9226 0.494922 41.4966 0.249594 43.4699C-0.0805016 46.4553 -0.0831842 49.4678 0.241594 52.4537C0.467256 54.4556 1.99356 56.0649 3.98072 56.396ZM3.43033 43.8283C3.51132 43.2759 3.94637 42.8428 4.4991 42.7643L10.659 41.7563C11.3123 41.6489 11.8319 41.1503 11.9661 40.502C12.895 35.985 14.6796 31.6876 17.2236 27.8414C17.5884 27.2882 17.5745 26.5673 17.1884 26.0287L13.5357 20.936C13.2003 20.4911 13.1912 19.8803 13.5133 19.4256C14.3908 18.3401 15.3316 17.3074 16.3309 16.3329C17.3016 15.3521 18.3215 14.4213 19.3868 13.5441C19.8469 13.2001 20.4786 13.2001 20.9388 13.5441L26.0283 17.1937C26.5669 17.5797 27.2878 17.5937 27.841 17.2289C31.6867 14.685 35.9836 12.9004 40.4999 11.9714C41.1482 11.8371 41.6469 11.3175 41.7543 10.6642L42.7623 4.50753C42.838 3.95652 43.2609 3.51747 43.8087 3.42115C46.5828 3.13876 49.3784 3.13876 52.1525 3.42115C52.7151 3.503 53.1563 3.94615 53.2357 4.50913L54.2437 10.669C54.3513 11.3227 54.8507 11.8425 55.4996 11.9762C60.0154 12.9028 64.3122 14.6847 68.1586 17.2257C68.7118 17.5905 69.4327 17.5765 69.9713 17.1905L75.064 13.5377C75.5089 13.2023 76.1197 13.1933 76.5744 13.5153C77.6571 14.4063 78.6931 15.3526 79.6783 16.3505C80.666 17.3141 81.5962 18.335 82.4639 19.408C82.7956 19.8665 82.791 20.4872 82.4527 20.9408L78.8031 26.0303C78.4171 26.5689 78.4031 27.2898 78.7679 27.843C81.3118 31.6887 83.0964 35.9856 84.0254 40.502C84.1597 41.1503 84.6793 41.6489 85.3326 41.7563L91.4893 42.7643C92.0432 42.8415 92.4799 43.2749 92.5613 43.8283C92.7183 45.2137 92.7973 46.6068 92.798 48.001C92.7987 49.3715 92.7245 50.741 92.5756 52.1033C92.5105 52.6796 92.071 53.1427 91.4989 53.2377L85.339 54.2457C84.6848 54.3535 84.1649 54.8537 84.0318 55.5032C83.8216 56.5325 83.5589 57.5504 83.2446 58.5528L79.3087 54.6073C82.0748 41.4948 76.3771 28.0476 65.0326 20.9138C53.6881 13.7801 39.1 14.4709 28.4805 22.6449C17.861 30.8189 13.4596 44.7443 17.4525 57.5367C21.4454 70.3291 32.9865 79.2784 46.3702 79.9603C49.1312 80.1002 51.8987 79.8781 54.602 79.2995L58.5428 83.2627C57.5476 83.5635 56.5252 83.8227 55.5028 84.0338C54.8533 84.1669 54.3531 84.6868 54.2453 85.341L53.2373 91.4977C53.1601 92.0517 52.7267 92.4883 52.1733 92.5697C49.4004 92.8753 46.6024 92.8753 43.8295 92.5697C43.2765 92.4893 42.8426 92.0541 42.7639 91.5009L41.7559 85.341C41.6485 84.6877 41.1498 84.1681 40.5015 84.0338C35.9841 83.1052 31.6861 81.3206 27.8394 78.7764C27.2862 78.4115 26.5653 78.4255 26.0267 78.8116L20.934 82.4643C20.4968 82.7946 19.898 82.81 19.4444 82.5027C18.2652 81.5123 17.2476 80.5827 16.3309 79.6691C15.3501 78.6984 14.4193 77.6785 13.5421 76.6132C13.1986 76.1529 13.1986 75.5215 13.5421 75.0612L17.1916 69.9717C17.5776 69.4331 17.5916 68.7122 17.2268 68.159C14.6832 64.3137 12.8987 60.0174 11.9693 55.5017C11.8357 54.8527 11.3159 54.3533 10.6622 54.2457L4.5023 53.2377C3.92969 53.1425 3.48996 52.6786 3.42553 52.1017C3.12635 49.3519 3.12903 46.5776 3.43353 43.8283H3.43033Z" fill="#0F172A"/>
<path d="M93.6828 89.2194C96.763 86.1215 96.763 81.1175 93.6828 78.0196L79.3071 63.6599C78.1249 62.4598 76.3621 62.0382 74.7648 62.5735C74.3096 62.7262 73.8073 62.6085 73.4673 62.2695L72.3009 61.1031C72.5967 60.4629 72.7475 59.7652 72.7425 59.06C72.7515 57.8017 72.2573 56.592 71.3697 55.7001C69.4856 53.9053 66.5244 53.9053 64.6402 55.7001L63.5363 56.804L46.3702 39.646C46.1521 39.4275 46.0039 39.149 45.9446 38.846L45.3174 35.7101C45.0361 34.2692 44.0973 33.0428 42.7799 32.395L36.2296 29.1214C35.0076 28.5325 33.5471 28.7781 32.5849 29.7342L29.729 32.5901C28.7665 33.5589 28.5249 35.0318 29.1274 36.2573L32.3929 42.7755C33.04 44.0973 34.2686 45.0399 35.7128 45.3227L38.8472 45.9499C39.1502 46.0091 39.4287 46.1572 39.6472 46.3755L56.81 63.5367L55.706 64.6407C53.8683 66.5112 53.8719 69.5104 55.714 71.3765C57.1424 72.7771 59.2896 73.145 61.1027 72.2997L62.2835 73.4805C62.61 73.8137 62.7246 74.3006 62.5811 74.7445C62.0373 76.346 62.4561 78.1175 63.6595 79.306L78.0256 93.6881C81.1222 96.7638 86.1207 96.7638 89.2173 93.6881L93.6828 89.2194ZM39.476 42.8091L36.34 42.1819C35.8684 42.0898 35.4677 41.781 35.2585 41.3484L31.9993 34.8493L34.8265 31.9902L41.3639 35.2653C41.7922 35.4752 42.0972 35.8738 42.1879 36.3421L42.8151 39.4796C42.9991 40.4 43.4517 41.2452 44.1159 41.9084L61.2787 59.0728L59.0708 61.2807L41.9063 44.1099C41.2428 43.4454 40.3969 42.9927 39.476 42.8091ZM80.2847 91.4225L65.9186 77.0452C65.5751 76.7077 65.4568 76.2026 65.6146 75.7476C66.1467 74.1502 65.7256 72.3892 64.5282 71.2053L63.5571 70.2342L64.661 69.1318C65.0655 68.7277 65.2235 68.1385 65.0758 67.5862C64.928 67.0339 64.4968 66.6024 63.9446 66.4542C63.3924 66.306 62.8031 66.4637 62.3987 66.8678L60.1587 69.1078C59.7184 69.5565 59.049 69.6915 58.4691 69.4486C57.8893 69.2057 57.5159 68.634 57.5268 68.0054C57.52 67.594 57.6771 67.1968 57.9636 66.9014L66.8962 57.9688C67.5136 57.3827 68.4819 57.3827 69.0993 57.9688C69.3836 58.2631 69.5411 58.6572 69.5377 59.0664C69.5449 59.4741 69.3894 59.8679 69.1057 60.1608L69.0945 60.1688L66.8546 62.4087C66.4502 62.8131 66.2922 63.4026 66.4403 63.955C66.5883 64.5075 67.0198 64.939 67.5722 65.087C68.1247 65.235 68.7141 65.0771 69.1185 64.6727L70.2209 63.5687L71.1809 64.5287C72.3713 65.7377 74.1473 66.1614 75.7552 65.6199C76.2061 65.4694 76.7033 65.59 77.0352 65.9303L91.4093 80.2883C93.2436 82.1347 93.2436 85.1155 91.4093 86.9618L86.9438 91.4273C85.0978 93.2508 82.128 93.2487 80.2847 91.4225Z" fill="#0F172A"/>
<path fill-rule="evenodd" clip-rule="evenodd" d="M72.4784 74.6805C71.8507 74.0741 70.8527 74.0828 70.2356 74.7C69.6184 75.3171 69.6098 76.315 70.2161 76.9428L81.3759 88.101C82.0037 88.7073 83.0016 88.6987 83.6187 88.0815C84.2359 87.4644 84.2446 86.4664 83.6382 85.8386L72.4784 74.6805Z" fill="#0F172A"/>
<path fill-rule="evenodd" clip-rule="evenodd" d="M76.9408 70.2165C76.3156 69.5918 75.3023 69.5922 74.6776 70.2173C74.0529 70.8425 74.0532 71.8558 74.6784 72.4805L85.8366 83.6403C86.4644 84.2466 87.4623 84.2379 88.0794 83.6208C88.6966 83.0036 88.7053 82.0057 88.0989 81.3779L76.9408 70.2165Z" fill="#0F172A"/>
</svg>
