<svg width="578" height="126" viewBox="0 0 578 126" fill="none" xmlns="http://www.w3.org/2000/svg">
<path d="M0.312 7.45599H12.728V88.096H59.704V100H0.312V7.45599ZM76.993 47.008H88.897V100H76.993V47.008ZM76.097 27.808C76.097 25.9307 76.8223 24.352 78.273 23.072C79.809 21.792 81.473 21.152 83.265 21.152C85.057 21.152 86.6357 21.792 88.001 23.072C89.4517 24.352 90.177 25.9307 90.177 27.808C90.177 29.7707 89.4517 31.392 88.001 32.672C86.6357 33.8667 85.057 34.464 83.265 34.464C81.473 34.464 79.809 33.824 78.273 32.544C76.8223 31.264 76.097 29.6853 76.097 27.808ZM114.613 23.712H126.517V47.264H141.109V56.608H126.517V100H114.613V56.608H104.885V47.264H114.613V23.712ZM160.613 23.712H172.517V47.264H187.109V56.608H172.517V100H160.613V56.608H150.885V47.264H160.613V23.712ZM201.493 0.927994H213.397V100H201.493V0.927994ZM258.569 101.28C252.51 101.28 247.305 100.085 242.953 97.696C238.601 95.2213 235.23 91.8933 232.841 87.712C230.537 83.4453 229.385 78.5813 229.385 73.12C229.385 67.9147 230.708 63.1787 233.353 58.912C235.998 54.6453 239.54 51.232 243.977 48.672C248.414 46.112 253.364 44.832 258.825 44.832C265.822 44.832 271.625 46.88 276.233 50.976C280.841 55.072 283.956 60.704 285.577 67.872L241.929 83.232L239.113 76.192L274.953 63.136L272.393 64.8C271.369 61.984 269.662 59.552 267.273 57.504C264.884 55.3707 261.769 54.304 257.929 54.304C254.686 54.304 251.785 55.1147 249.225 56.736C246.665 58.272 244.66 60.4053 243.209 63.136C241.758 65.8667 241.033 68.9813 241.033 72.48C241.033 76.1493 241.801 79.392 243.337 82.208C244.873 84.9387 246.964 87.1147 249.609 88.736C252.34 90.272 255.412 91.04 258.825 91.04C261.129 91.04 263.348 90.6133 265.481 89.76C267.7 88.9067 269.748 87.7973 271.625 86.432L277.129 95.264C274.484 97.056 271.497 98.5067 268.169 99.616C264.926 100.725 261.726 101.28 258.569 101.28ZM294.221 100L334.669 3.616H335.437L375.757 100H361.549L331.341 23.072L340.173 17.312L306.381 100H294.221ZM317.901 64.928H352.333L356.429 75.68H314.317L317.901 64.928ZM421.475 101.28C417.464 101.28 413.582 100.341 409.827 98.464C406.158 96.5867 403.299 94.0693 401.251 90.912L402.019 87.2V125.472H390.243V46.24H400.483L402.147 59.808L400.867 56.096C403.427 52.8533 406.67 50.1653 410.595 48.032C414.52 45.8987 418.915 44.832 423.779 44.832C428.728 44.832 433.166 46.0267 437.091 48.416C441.102 50.8053 444.259 54.1333 446.563 58.4C448.867 62.6667 450.019 67.6587 450.019 73.376C450.019 79.0933 448.782 84.0427 446.307 88.224C443.832 92.4053 440.419 95.648 436.067 97.952C431.8 100.171 426.936 101.28 421.475 101.28ZM419.171 91.808C422.584 91.808 425.699 91.04 428.515 89.504C431.416 87.8827 433.72 85.7067 435.427 82.976C437.134 80.16 437.987 77.0027 437.987 73.504C437.987 69.92 437.176 66.7627 435.555 64.032C433.934 61.216 431.758 58.9973 429.027 57.376C426.382 55.7547 423.395 54.944 420.067 54.944C416.995 54.944 414.222 55.5413 411.747 56.736C409.272 57.9307 407.224 59.5947 405.603 61.728C403.982 63.776 402.83 66.1653 402.147 68.896V77.728C402.574 80.4587 403.598 82.8907 405.219 85.024C406.84 87.1573 408.846 88.8213 411.235 90.016C413.71 91.2107 416.355 91.808 419.171 91.808ZM497.35 101.28C493.339 101.28 489.457 100.341 485.702 98.464C482.033 96.5867 479.174 94.0693 477.126 90.912L477.894 87.2V125.472H466.118V46.24H476.358L478.022 59.808L476.742 56.096C479.302 52.8533 482.545 50.1653 486.47 48.032C490.395 45.8987 494.79 44.832 499.654 44.832C504.603 44.832 509.041 46.0267 512.966 48.416C516.977 50.8053 520.134 54.1333 522.438 58.4C524.742 62.6667 525.894 67.6587 525.894 73.376C525.894 79.0933 524.657 84.0427 522.182 88.224C519.707 92.4053 516.294 95.648 511.942 97.952C507.675 100.171 502.811 101.28 497.35 101.28ZM495.046 91.808C498.459 91.808 501.574 91.04 504.39 89.504C507.291 87.8827 509.595 85.7067 511.302 82.976C513.009 80.16 513.862 77.0027 513.862 73.504C513.862 69.92 513.051 66.7627 511.43 64.032C509.809 61.216 507.633 58.9973 504.902 57.376C502.257 55.7547 499.27 54.944 495.942 54.944C492.87 54.944 490.097 55.5413 487.622 56.736C485.147 57.9307 483.099 59.5947 481.478 61.728C479.857 63.776 478.705 66.1653 478.022 68.896V77.728C478.449 80.4587 479.473 82.8907 481.094 85.024C482.715 87.1573 484.721 88.8213 487.11 90.016C489.585 91.2107 492.23 91.808 495.046 91.808ZM556.841 101.024C553.086 101.024 549.417 100.384 545.833 99.104C542.334 97.7387 539.433 95.7333 537.129 93.088L542.121 86.176C544.34 88.3093 546.601 89.9307 548.905 91.04C551.294 92.064 553.641 92.576 555.945 92.576C557.652 92.576 559.23 92.3627 560.681 91.936C562.132 91.5093 563.284 90.8267 564.137 89.888C565.076 88.864 565.545 87.4987 565.545 85.792C565.545 83.9147 564.905 82.4213 563.625 81.312C562.43 80.2027 560.852 79.3067 558.889 78.624C557.012 77.9413 555.006 77.3013 552.873 76.704C548.521 75.2533 545.193 73.248 542.889 70.688C540.585 68.128 539.433 65.0133 539.433 61.344C539.433 58.528 540.116 55.9253 541.481 53.536C542.932 51.0613 545.022 49.056 547.753 47.52C550.569 45.984 554.025 45.216 558.121 45.216C561.79 45.216 565.076 45.6853 567.977 46.624C570.878 47.4773 573.609 48.928 576.169 50.976L571.433 58.4C569.897 56.7787 568.062 55.584 565.929 54.816C563.796 54.048 561.876 53.6213 560.169 53.536C558.718 53.4507 557.31 53.664 555.945 54.176C554.665 54.688 553.598 55.4133 552.745 56.352C551.892 57.2907 551.465 58.4 551.465 59.68C551.465 61.472 552.062 62.9227 553.257 64.032C554.452 65.1413 555.988 66.0373 557.865 66.72C559.828 67.3173 561.748 67.9573 563.625 68.64C566.27 69.408 568.617 70.432 570.665 71.712C572.713 72.992 574.334 74.5707 575.529 76.448C576.809 78.3253 577.449 80.672 577.449 83.488C577.449 86.6453 576.681 89.5893 575.145 92.32C573.694 94.9653 571.433 97.0987 568.361 98.72C565.374 100.256 561.534 101.024 556.841 101.024Z" fill="black"/>
</svg>
